<?xml version="1.0" standalone="no"?><!DOCTYPE svg PUBLIC "-//W3C//DTD SVG 1.1//EN" "http://www.w3.org/Graphics/SVG/1.1/DTD/svg11.dtd"><svg t="1596463772461" class="icon" viewBox="0 0 1024 1024" version="1.1" xmlns="http://www.w3.org/2000/svg" p-id="5522" width="16" height="16" xmlns:xlink="http://www.w3.org/1999/xlink"><defs><style type="text/css"></style></defs><path d="M849.368875 1022.281522l139.452289-37.84256c25.228373-6.880465 40.299868-32.968896 33.378448-59.344013L787.035135 36.081488C780.195625 10.238788 753.820508-5.160349 728.878821 1.638206l-139.452289 37.842559a48.122302 48.122302 0 0 0-33.378448 59.384969l235.082566 888.972506c6.921421 25.924611 33.255583 41.241837 58.238225 34.484237zM191.670106 1020.684271c26.211297 0 47.426065-21.296678 47.426065-48.572809V51.767311C239.137126 24.900732 217.553762 3.194502 191.670106 3.194502H47.38511C21.214768 3.194502 0 24.49118 0 51.767311v920.344151c0 26.825624 21.583365 48.531854 47.38511 48.531854h144.325951v0.040955z m286.972743 0c26.129386 0 47.38511-21.296678 47.385109-48.531854V51.767311c0-26.866579-21.583365-48.572809-47.385109-48.572809H334.357852c-26.211297 0-47.426065 21.296678-47.426065 48.572809v920.344151c0 26.825624 21.583365 48.531854 47.426065 48.531854h144.325952v0.040955z" p-id="5523" fill="#c5c5c5"></path></svg>